<svg xmlns="http://www.w3.org/2000/svg" width="123" height="38" viewBox="0 0 123 38" fill="none"><path d="M54.9803 22.1261V18.1183H47.1997V14.4846H54.2342V10.7736H47.1997V7.16361H54.9536V3.18252H42.9897V22.1261H54.9803ZM70.9988 8.8469H66.7355L63.914 17.1089L60.8498 8.85283H56.4532L61.8889 22.1321H65.9657L70.9988 8.8469ZM78.7453 18.7922C77.2265 18.7922 75.761 17.7235 75.761 15.4791C75.761 13.2347 77.2265 12.1808 78.7453 12.1808C80.2908 12.1808 81.7297 13.2199 81.7297 15.4672C81.7297 17.7146 80.2908 18.7863 78.7453 18.7863V18.7922ZM78.7453 8.45205C74.8018 8.45205 71.7109 11.3644 71.7109 15.4791C71.7109 19.6205 74.8018 22.5328 78.7453 22.5328C82.6889 22.5328 85.7798 19.6205 85.7798 15.4791C85.7798 11.3377 82.6934 8.44611 78.7483 8.44611L78.7453 8.45205ZM92.4383 22.1261V2.78174H88.3911V22.1261H92.4383ZM109.043 8.8469H104.78L101.957 17.1089L98.8925 8.85283H94.4959L99.9317 22.1321H104.01L109.043 8.8469ZM113.78 13.8938C113.86 12.9052 114.713 11.6494 116.418 11.6494C118.342 11.6494 119.003 12.9052 119.083 13.8938H113.78ZM119.376 17.3405C118.976 18.3796 118.203 19.0772 116.711 19.0772C115.139 19.0772 113.78 18.0085 113.7 16.5122H122.92C122.977 16.0962 123.004 15.6764 123 15.2564C123 10.9517 120.495 8.44314 116.365 8.44314C112.927 8.44314 109.757 11.1685 109.757 15.4435C109.757 19.9055 113.013 22.5239 116.658 22.5239C120.015 22.5239 122.12 20.5942 122.76 18.3024L119.376 17.3405Z" fill="white"></path><path d="M50.0323 34.1434L49.067 31.6543H45.1304L44.1901 34.1434H42.8738L46.4092 25.2304H47.8258L51.3612 34.1434H50.0323ZM47.0861 26.5127L45.5692 30.5103H48.6282L47.0861 26.5127Z" fill="white"></path><path d="M54.8963 29.0018C53.9435 29.0018 53.0659 29.7058 53.0659 31.1137C53.0659 32.484 53.9309 33.2383 54.9088 33.2383C56.0371 33.2383 56.4509 32.4714 56.5888 31.9937L57.6293 32.4463C57.3284 33.3137 56.4885 34.3319 54.9088 34.3319C53.1537 34.3319 51.8624 32.9491 51.8624 31.1137C51.8624 29.2406 53.1787 27.9081 54.8963 27.9081C56.5135 27.9081 57.3034 28.9138 57.5792 29.8315L56.5135 30.284C56.3506 29.6932 55.9243 29.0018 54.8963 29.0018Z" fill="white"></path><path d="M58.5707 32.5217C58.5707 31.428 59.348 30.8497 60.4011 30.6863L62.0309 30.4475C62.3944 30.3972 62.4947 30.2086 62.4947 29.9949C62.4947 29.4041 62.1061 28.9138 61.1909 28.9138C60.3509 28.9138 59.9121 29.4292 59.8244 30.1332L58.6961 29.8692C58.834 28.7126 59.8495 27.9081 61.1658 27.9081C62.9711 27.9081 63.6732 28.9515 63.6732 30.1206V33.1503C63.6732 33.6908 63.7108 33.9925 63.7484 34.1434H62.595C62.5574 33.9925 62.5323 33.7662 62.5323 33.3263C62.2691 33.7537 61.6673 34.3319 60.5891 34.3319C59.3605 34.3319 58.5707 33.4771 58.5707 32.5217ZM60.7521 33.3388C61.7174 33.3388 62.4947 32.8737 62.4947 31.5537V31.2772L60.6518 31.5537C60.1503 31.6417 59.7742 31.9183 59.7742 32.4588C59.7742 32.9114 60.1503 33.3388 60.7521 33.3388Z" fill="white"></path><path d="M66.2111 31.1012C66.2111 32.3457 66.8505 33.2634 67.9788 33.2634C69.057 33.2634 69.7214 32.3206 69.7214 31.076C69.7214 29.8189 69.0821 28.9766 67.9914 28.9766C66.9132 28.9766 66.2111 29.8566 66.2111 31.1012ZM69.734 33.3263V33.2257C69.4456 33.8165 68.8188 34.3068 67.866 34.3068C66.1108 34.3068 65.0076 32.9114 65.0076 31.1012C65.0076 29.4041 66.161 27.9332 67.866 27.9332C68.9191 27.9332 69.5083 28.4486 69.7089 28.9515V25.0419H70.8748V33.0245C70.8748 33.6154 70.925 34.0428 70.9375 34.1434H69.7967C69.759 34.0051 69.734 33.6908 69.734 33.3263Z" fill="white"></path><path d="M73.6441 30.4977H76.9413C76.9037 29.6303 76.352 28.9515 75.2864 28.9515C74.3085 28.9515 73.6817 29.7309 73.6441 30.4977ZM77.1168 32.0691L78.1323 32.4211C77.8063 33.4771 76.8159 34.3319 75.4243 34.3319C73.8071 34.3319 72.3904 33.1628 72.3904 31.1012C72.3904 29.2029 73.7569 27.9081 75.2739 27.9081C77.1293 27.9081 78.1699 29.2029 78.1699 31.076C78.1699 31.2269 78.1573 31.3652 78.1448 31.4531H73.6065C73.6441 32.5343 74.3963 33.2885 75.4243 33.2885C76.4147 33.2885 76.8786 32.7606 77.1168 32.0691Z" fill="white"></path><path d="M80.8401 34.1434H79.6742V28.0966H80.8025V28.9012C81.1912 28.2349 81.9308 27.9207 82.6329 27.9207C83.3851 27.9207 84.0997 28.2726 84.4382 29.0646C84.9271 28.1972 85.6919 27.9207 86.4566 27.9207C87.5097 27.9207 88.5377 28.6498 88.5377 30.2212V34.1434H87.3718V30.3469C87.3718 29.5549 86.9832 28.9641 86.0931 28.9641C85.2531 28.9641 84.7015 29.6178 84.7015 30.4852V34.1434H83.523V30.3469C83.523 29.5549 83.1469 28.9641 82.2443 28.9641C81.3918 28.9641 80.8401 29.5926 80.8401 30.4977V34.1434Z" fill="white"></path><path d="M91.928 36.6702H90.6367L92.1411 33.4771L89.546 28.0966H90.9L92.7805 32.2703L94.5858 28.0966H95.852L91.928 36.6702Z" fill="white"></path><path d="M24.1629 38L16.1056 28.212C13.9413 25.1691 7.46049 17.7027 7.54783 13.9294C6.86836 9.50891 11.7682 3.24187 13.9576 0L24.1629 13.9294C29.4166 20.9698 30.7237 25.1824 30.2574 28.5638C29.7911 31.9452 27.1458 35.5152 24.1629 38Z" fill="#249091"></path><path d="M1.20763 32.5939L5.03129 38L8.33389 32.8046C9.02342 31.7054 9.37847 30.4285 9.35559 29.1301C9.33272 27.8317 8.93292 26.5682 8.2051 25.4941L4.226 19.6175L0.890838 25.4214C0.2572 26.5231 -0.0495928 27.7833 0.00652498 29.0539C0.0626427 30.3245 0.479339 31.5526 1.20763 32.5939Z" fill="url(#paint0_linear_3350_481)"></path><defs><linearGradient id="paint0_linear_3350_481" x1="0.674711" y1="26.0003" x2="9.14129" y2="31.9812" gradientUnits="userSpaceOnUse"><stop offset="1" stop-color="#249091"></stop></linearGradient></defs></svg>