<?xml version="1.0" encoding="UTF-8"?> <svg xmlns="http://www.w3.org/2000/svg" width="97.627" height="28.806" viewBox="0 0 97.627 28.806"><g id="moa-blanco" transform="translate(-2937 1968.425)"><path id="Trazado_25408" data-name="Trazado 25408" d="M93.979,29.38a3.682,3.682,0,0,0,2.574-.979,3.378,3.378,0,0,0,1.071-2.62,3.468,3.468,0,0,0-1.071-2.62,3.592,3.592,0,0,0-2.574-1.025,3.54,3.54,0,0,0-2.529,1.025,3.469,3.469,0,0,0-1.07,2.62,3.378,3.378,0,0,0,1.07,2.62,3.626,3.626,0,0,0,2.529.979" transform="translate(2937 -1969)" fill="#007fff"></path><path id="Trazado_25409" data-name="Trazado 25409" d="M6.424,29.108V15.8q0-.49-.022-1.155-.022-.8-.046-1.572t-.068-1.48q-.047-.71-.092-1.117a10.579,10.579,0,0,0,.957,2.347Q7.882,14.209,8.93,15.8l2.414,3.6a1.782,1.782,0,0,0,.638.661,1.835,1.835,0,0,0,.82.16h2.643a1.686,1.686,0,0,0,.8-.16,2.216,2.216,0,0,0,.661-.661l2.278-3.417Q20,14.712,20.8,13.163a12.789,12.789,0,0,0,1.071-2.643q-.091.91-.114,2.438t-.022,3.028V29.108h6.47V2.09q0-1.23-1.37-1.23h-3.19a3.549,3.549,0,0,0-1.5.3,2.811,2.811,0,0,0-1.139,1.071l-4.282,6.88q-.957,1.548-1.527,2.642t-.934,2q-.409-.912-1.025-2T11.618,9.107L7.289,2.227A2.8,2.8,0,0,0,6.242,1.133,3.691,3.691,0,0,0,4.647.86H1.594Q0,.86,0,2.09V29.108Zm41.3.273q4.694,0,6.926-2.369a8.324,8.324,0,0,0,1.868-5.877V8.833A8.324,8.324,0,0,0,54.65,2.956Q52.421.586,47.728.587H41.167q-4.692,0-6.925,2.369a8.324,8.324,0,0,0-1.868,5.877v12.3a8.324,8.324,0,0,0,1.868,5.877q2.232,2.37,6.925,2.369h6.561Zm-.683-6.241h-5.19a3.117,3.117,0,0,1-2.233-.638,2.839,2.839,0,0,1-.5-1.914V9.38a2.839,2.839,0,0,1,.5-1.914,3.118,3.118,0,0,1,2.233-.637h5.194a3.116,3.116,0,0,1,2.232.637,2.839,2.839,0,0,1,.5,1.914V20.588a2.839,2.839,0,0,1-.5,1.914,3.112,3.112,0,0,1-2.232.638ZM65.7,29.108H87.392L78.781,2.364A2.3,2.3,0,0,0,77.665.951,6.29,6.29,0,0,0,75.136.587h-4.1a6.29,6.29,0,0,0-2.529.364,2.3,2.3,0,0,0-1.116,1.413L58.78,29.108Zm12.425-6.22H67.814l4.448-14.9a.7.7,0,0,1,.674-.573h.124a.7.7,0,0,1,.679.573Z" transform="translate(2937 -1969)" fill="#fff"></path></g></svg> 